<svg width="459" height="325" viewBox="0 0 459 325" fill="none" xmlns="http://www.w3.org/2000/svg">
<ellipse cx="55.1191" cy="29.1283" rx="55.1191" ry="29.1283" transform="matrix(0.858247 0.513237 -0.537912 0.843001 141.523 131.861)" fill="#CB8F3C"/>
<path d="M265.686 243.579C274.406 236.161 218.743 207.287 218.743 207.287L212.549 217.07C212.549 217.07 254.928 252.731 265.686 243.579Z" fill="#CB8F3C"/>
<ellipse cx="39.3188" cy="15.9172" rx="39.3188" ry="15.9172" transform="matrix(0.842621 0.538507 -0.563397 0.826186 149.637 147.64)" fill="#ACDBDE"/>
<ellipse cx="347.511" cy="291.864" rx="111.49" ry="11.0456" fill="#555252"/>
<path d="M232.109 177.306C232.109 177.306 196.575 208.233 196.575 203.184C196.575 194.808 204.355 183.363 205.008 182.418C204.281 183.463 194.651 197.272 191.359 199.397C187.938 201.606 181.219 188.045 179.949 175.728C178.68 163.41 193.641 144.169 193.641 144.169L232.109 177.306Z" fill="#FAD13B"/>
<path d="M226.566 210.127C228.522 201.606 246.778 204.131 272.531 187.089C284.9 178.904 280.681 223.382 280.681 223.382C280.681 223.382 273.299 236.658 265.033 237.268C255.993 237.934 246.778 223.382 246.778 223.382C246.778 223.382 238.324 226.314 234.716 223.382C232 221.174 231.456 215.176 231.456 215.176C231.456 215.176 225.96 212.766 226.566 210.127Z" fill="#269753"/>
<path d="M297.633 278.61L303.827 236.636L309.369 238.214L302.523 279.556C302.523 279.556 314.073 279.556 314.911 282.397C315.563 284.606 304.479 283.359 301.219 284.921C298.611 286.171 290.54 298.699 289.157 296.914C287.201 294.389 294.047 284.921 294.047 284.921C294.047 284.921 278.399 295.02 277.421 293.127C275.465 289.339 289.157 283.659 289.157 283.659C289.157 283.659 277.421 284.921 276.769 283.659C274.291 278.861 297.633 278.61 297.633 278.61Z" fill="#FAD13B"/>
<path d="M215.619 280.503C218.552 278.61 235.504 278.294 235.504 278.294C235.504 278.294 253.961 278.898 253.108 283.028C252.456 286.184 245.035 283.581 240.394 285.553C235.753 287.524 228.627 299.438 227.354 295.967C225.859 291.889 231.266 285.553 231.266 285.553C231.266 285.553 216.27 297.861 215.618 293.127C214.808 287.242 227.354 283.028 227.354 283.028C227.354 283.028 212.979 286.815 212.684 285.553C212.106 283.074 213.435 281.913 215.619 280.503Z" fill="#676262"/>
<path d="M156.939 269.142C159.873 267.248 176.824 266.933 176.824 266.933C176.824 266.933 195.281 267.536 194.428 271.667C193.776 274.823 186.356 272.22 181.714 274.191C177.073 276.163 169.947 288.077 168.675 284.606C167.179 280.527 172.586 274.191 172.586 274.191C172.586 274.191 157.591 286.499 156.939 281.766C156.128 275.881 168.675 271.667 168.675 271.667C168.675 271.667 154.3 275.454 154.005 274.191C153.426 271.713 154.755 270.551 156.939 269.142Z" fill="#676262"/>
<path d="M117.82 299.438C120.754 297.545 137.705 297.229 137.705 297.229C137.705 297.229 156.162 297.833 155.309 301.963C154.657 305.119 147.237 302.517 142.595 304.488C137.954 306.459 130.828 318.374 129.555 314.902C128.06 310.824 133.467 304.488 133.467 304.488C133.467 304.488 118.472 316.796 117.82 312.062C117.009 306.178 129.555 301.963 129.555 301.963C129.555 301.963 115.181 305.75 114.886 304.488C114.307 302.01 115.636 300.848 117.82 299.438Z" fill="#676262"/>
<path d="M3.06973 308.906C6.00351 307.013 22.9552 306.697 22.9552 306.697C22.9552 306.697 41.4123 307.301 40.559 311.431C39.9069 314.587 32.4866 311.984 27.8452 313.956C23.2037 315.927 16.078 327.841 14.8054 324.37C13.3103 320.292 18.7173 313.956 18.7173 313.956C18.7173 313.956 3.72155 326.263 3.06961 321.53C2.25924 315.645 14.8054 311.431 14.8054 311.431C14.8054 311.431 0.430564 315.218 0.135662 313.956C-0.443272 311.477 0.886027 310.316 3.06973 308.906Z" fill="#676262"/>
<path d="M61.7494 269.142C64.6832 267.248 81.6349 266.933 81.6349 266.933C81.6349 266.933 100.092 267.536 99.2386 271.667C98.5866 274.823 91.1663 272.22 86.5249 274.191C81.8834 276.163 74.7577 288.077 73.4851 284.606C71.99 280.527 77.397 274.191 77.397 274.191C77.397 274.191 62.4012 286.499 61.7493 281.766C60.9389 275.881 73.4851 271.667 73.4851 271.667C73.4851 271.667 59.1103 275.454 58.8153 274.191C58.2364 271.713 59.5657 270.551 61.7494 269.142Z" fill="#676262"/>
<path d="M347.184 278.294C344.128 262.149 341.437 254.044 338.382 237.899L345.554 237.268C348.227 253.659 352.074 278.294 352.074 278.294C352.074 278.294 365.641 278.898 364.787 283.028C364.135 286.184 356.715 283.581 352.074 285.553C347.432 287.524 340.307 299.438 339.034 295.967C337.539 291.889 342.946 285.553 342.946 285.553C342.946 285.553 327.95 297.861 327.298 293.127C326.488 287.242 339.034 283.028 339.034 283.028C339.034 283.028 324.659 286.815 324.364 285.553C323.785 283.074 325.115 281.913 327.298 280.503C330.232 278.61 347.184 278.294 347.184 278.294Z" fill="#FAD13B"/>
<path d="M194.945 69.6899C209.917 42.1942 250 25.0001 250 25.0001C250 25.0001 293.561 19.2837 313.5 29C335.472 39.7067 351.335 58.0778 358 81C367.062 112.164 353.29 143.853 326.647 163.42C322.815 166.234 318.199 169.285 312.991 172.256C312.991 172.256 330.25 179.581 341.969 179.83C356.392 180.137 377.502 170.047 377.502 170.047C377.502 170.047 359.572 116.203 373.916 108.192C379.303 105.183 385.903 108.757 388.586 114.188C390.731 118.53 390.31 133.038 389.625 143.994C390.938 132.375 393.824 116.357 399.996 110.401C402.982 107.519 405.238 105.145 409.45 105.351C416.563 105.7 416.947 114.551 416.947 121.446C416.947 123.982 414.321 129.176 410.904 134.861C414.815 129.838 418.627 125.752 421.185 124.918C425.232 123.599 427.976 121.495 431.943 123.024C439.32 125.868 432.11 135.88 427.705 142.275C423.793 147.956 411.699 160.869 398.04 168.154C392.447 171.137 383.044 174.465 383.044 174.465C383.044 174.465 392.477 190.609 376.524 215.807C364.136 235.374 358.033 237.952 341.317 242.001C324.678 246.032 311.324 245.559 296.655 236.952C285.685 230.515 280.481 222.365 275.14 211.074C271.107 202.547 269.598 187.666 269.598 187.666C258.413 189.104 246.843 188.411 235.694 184.249C212.257 175.498 189.403 141.013 189.403 141.013C189.403 141.013 172.778 110.401 194.945 69.6899Z" fill="#269753"/>
<path d="M312.991 172.256C318.199 169.285 322.815 166.234 326.647 163.42C353.29 143.853 367.062 112.164 358 81C351.335 58.0778 335.472 39.7067 313.5 29C293.561 19.2837 250 25.0001 250 25.0001C250 25.0001 209.917 42.1942 194.945 69.6899C172.778 110.401 189.403 141.013 189.403 141.013C189.403 141.013 212.257 175.498 235.694 184.249C246.843 188.411 258.413 189.104 269.598 187.666M312.991 172.256C312.991 172.256 330.25 179.581 341.969 179.83C356.392 180.137 377.502 170.047 377.502 170.047C377.502 170.047 359.572 116.203 373.916 108.192C379.303 105.183 385.903 108.757 388.586 114.188C392.172 121.446 388.586 157.108 388.586 157.108C388.586 157.108 389.86 120.184 399.996 110.401C402.982 107.519 405.238 105.145 409.45 105.351C416.563 105.7 416.947 114.551 416.947 121.446C416.947 128.705 395.432 157.739 395.432 157.739C395.432 157.739 413.687 127.361 421.185 124.918C425.232 123.599 427.976 121.495 431.943 123.024C439.32 125.868 432.11 135.88 427.705 142.275C423.793 147.956 411.699 160.869 398.04 168.154C392.447 171.137 383.044 174.465 383.044 174.465C383.044 174.465 392.477 190.609 376.524 215.807C364.136 235.374 358.033 237.952 341.317 242.001C324.678 246.032 311.324 245.559 296.655 236.952C285.685 230.515 280.481 222.365 275.14 211.074C271.107 202.547 269.598 187.666 269.598 187.666M312.991 172.256C300.914 179.145 285.654 185.602 269.598 187.666" stroke="#269753"/>
<path d="M313.606 218.017C300.676 209.813 284.918 193.401 279.377 198.766C276.841 201.22 276.769 204.131 276.769 207.287C276.769 218.017 288.54 229.806 302.522 235.69C329.906 247.213 338.606 241.054 339.033 235.69C339.974 223.891 323.83 224.503 313.606 218.017Z" fill="#FFFEFF"/>
<ellipse cx="244.169" cy="129.967" rx="28.3615" ry="27.1406" fill="#FFFEFF"/>
<ellipse cx="235.694" cy="141.644" rx="13.3658" ry="12.9391" fill="black"/>
<ellipse cx="237.324" cy="134.386" rx="3.91193" ry="4.41824" fill="white"/>
<ellipse cx="233.413" cy="150.481" rx="2.60795" ry="2.8403" fill="white"/>
<path d="M310.4 174.699C317.986 166.237 330.985 174.699 340.249 176.275C358.775 179.428 381.28 176.675 374.215 187.31C371.63 191.2 369.11 192.958 364.265 193.931C363.078 194.17 361.866 194.317 360.65 194.388C362.015 195.06 363.249 195.847 364.265 196.769C367.732 199.914 371.567 202.124 370.784 206.543C369.935 211.332 364.265 210.326 361.177 209.064C350.924 204.877 337.847 196.769 337.847 196.769C337.847 196.769 359.509 210.908 353.286 219.784C346.824 229.001 323.437 213.794 323.437 213.794C323.437 213.794 308.823 201.138 307.655 190.463C306.977 184.26 306.086 179.511 310.4 174.699Z" fill="#269753"/>
<path d="M355.986 178.252C355.986 178.252 375.761 177.453 375.22 185.195C374.774 191.573 361.202 194.347 361.202 194.347C361.202 194.347 374.23 200.998 371.308 206.34C368.446 211.572 355.66 205.709 355.66 205.709C355.66 205.709 359.182 214.974 355.986 219.279C352.416 224.088 346.746 223.073 340.665 222.435C334.042 221.74 316.541 207.918 316.541 207.918C316.541 207.918 334.722 218.551 340.991 218.648C345.617 218.719 349.263 220.04 352.726 217.07C356.263 214.037 355.66 205.709 355.66 205.709C355.66 205.709 363.833 207.227 365.766 203.815C367.793 200.238 361.202 194.347 361.202 194.347C361.202 194.347 367.739 190.185 367.722 186.142C367.699 180.74 355.986 178.252 355.986 178.252Z" fill="#D9D9D9"/>
<path d="M127.353 76.0905C107.712 86.6586 308.419 114.488 308.419 114.488C308.419 114.488 355.271 141.613 355.271 138.795C355.271 135.976 372.661 96.5222 355.271 68.1644C342.213 46.8723 331.54 32.0915 305.145 24.1305C279.83 16.495 260.82 19.8209 236.811 30.1191C213.03 40.3194 190.368 72.92 190.368 72.92C190.368 72.92 148.731 64.5878 127.353 76.0905Z" fill="#794C24" stroke="#774C24"/>
<path d="M220.851 59.5337L208.166 75.9143L190.98 70.9825L202.438 55.8349L220.851 59.5337L236.605 46.852L261.361 54.2497L249.904 67.4598L278.342 78.028L286.322 64.6417L309.441 74.8575L316.602 62.1758L296.142 51.2554L304.94 41.0395L287.958 32.7612L274.455 42.977L255.019 35.4032L237.219 46.852L219.215 41.0395C222.507 38.8352 222.897 37.9278 227.194 35.0509C230.818 32.6238 232.659 31.7324 235.838 30.1934L235.991 30.1191L255.019 35.4032L271.795 27.6532L257.678 22.8976C271.386 18.3181 284.889 19.0226 290.209 20.6078L271.795 27.6532L287.958 32.7612L303.098 23.7783L313.328 29.943L304.94 41.0395L322.535 49.6701L316.602 62.1758L339.925 73.0962L333.787 86.3063L309.441 74.8575L303.098 88.7722L328.059 103.391L319.057 119.244L294.505 105.505L303.098 88.7722L278.342 78.028L269.136 94.5847L236.605 82.4313L249.904 67.4598L220.851 59.5337Z" fill="#A77F53"/>
<path d="M262.793 53.7213L273.637 43.6815L295.733 51.9599L286.322 63.761L262.793 53.7213Z" fill="#A77F53"/>
<path d="M348.314 117.482L359.566 125.232L354.861 138.619L343.608 132.63L348.314 117.482Z" fill="#A77F53"/>
<path d="M352.815 100.573L362.021 105.505L359.566 81.5507H354.861L352.815 100.573Z" fill="#A77F53"/>
<path d="M345.654 135.977L312.919 117.306C312.919 117.306 331.27 88.4467 329.491 69.5735C325.755 29.943 293.892 21.1362 293.892 21.1362C293.892 21.1362 309.012 24.3046 316.397 27.8294C339.441 38.8274 347.337 54.2403 353.633 76.2666C360.148 99.0587 345.654 135.977 345.654 135.977Z" fill="#54381A"/>
<ellipse cx="20.0375" cy="5.70989" rx="20.0375" ry="5.70989" transform="matrix(0.971155 -0.238448 0.314476 0.949265 309.983 20.8285)" fill="#54381A"/>
<ellipse cx="18.3684" cy="6.23569" rx="18.3684" ry="6.23569" transform="matrix(-0.655808 -0.754927 0.840803 -0.541341 311.847 34.4849)" fill="#54381A"/>
</svg>
